PathFileType	4	(X/Y/Z)	/Users/niels/Desktop/University/Third Semester/Perception and Action/Exam/Gymnastics Motion Tracking/Code for Gym Tracking/Analyzed Data/Webcam_Backflip/id6_3_baseline_Sports2D/id6_3_baseline_Sports2D_px_person00.trc
DataRate	CameraRate	NumFrames	NumMarkers	Units	OrigDataRate	OrigDataStartFrame	OrigNumFrames
29.8125	29.8125	11	22	m	29.8125	0	160
Frame#	Time	Hip			RHip			RKnee			RAnkle			RBigToe			RSmallToe			RHeel			LHip			LKnee			LAnkle			LBigToe			LSmallToe			LHeel			Neck			Head			Nose			RShoulder			RElbow			RWrist			LShoulder			LElbow			LWrist		
		X1	Y1	Z1	X2	Y2	Z2	X3	Y3	Z3	X4	Y4	Z4	X5	Y5	Z5	X6	Y6	Z6	X7	Y7	Z7	X8	Y8	Z8	X9	Y9	Z9	X10	Y10	Z10	X11	Y11	Z11	X12	Y12	Z12	X13	Y13	Z13	X14	Y14	Z14	X15	Y15	Z15	X16	Y16	Z16	X17	Y17	Z17	X18	Y18	Z18	X19	Y19	Z19	X20	Y20	Z20	X21	Y21	Z21	X22	Y22	Z22
0	0.0	0.9849088779619326	-0.5819182229900148	0.0	0.9862716101250787	-0.5805617507180022	0.0	0.9862706459602435	-0.6786474200362524	0.0	0.9753628626288335	-0.7753686318015255	0.0	1.00397279322909	-0.7930785548427733	0.0	0.9971588723818615	-0.7957998058090022	0.0	0.969912261971597	-0.7917171142545688	0.0	0.9821811703656983	-0.5778369049148612	0.0	0.983543036820002	-0.6786512282726703	0.0	0.9753621746107446	-0.7712851140140945	0.0	1.0080501498377434	-0.790354835452473	0.0	1.0012323904280802	-0.7876313906536974	0.0	0.965831345839825	-0.7862685833650606	0.0	0.995797383280725	-0.4497801846263381	0.0	1.0148706284818836	-0.3816720217489274	0.0	1.0271354128626031	-0.4184403737630804	0.0	0.9930761450995135	-0.4688526509789419	0.0	1.0012390547999854	-0.5369095503070236	0.0	1.0243629011962918	-0.5954471467014272	0.0	0.9862558979418966	-0.46612265736212427	0.0	0.9875734282628716	-0.5301033181947793	0.0	1.01199240109825	-0.5872831546813436	0.0
1	0.03354297693920335	0.9843064871364176	-0.5820033939416085	0.0	0.9858269894830237	-0.580919670896087	0.0	0.9860266745545155	-0.6789589869637402	0.0	0.9752002752169111	-0.7762204289508001	0.0	1.0062015689914325	-0.7939432520090766	0.0	0.9992119397550653	-0.796600396500432	0.0	0.9687945304934878	-0.7922384148523993	0.0	0.9821779995482227	-0.5779207147085909	0.0	0.9838927379223906	-0.6785705936354681	0.0	0.9750423073451796	-0.7717933676627388	0.0	1.0089285495736264	-0.7906382577339152	0.0	1.0023935009849936	-0.7880977191386839	0.0	0.9657754256858904	-0.7865521407744378	0.0	0.9953167847012302	-0.44974421973363476	0.0	1.013843792087923	-0.38174817619201773	0.0	1.0271213794920941	-0.41884593761669625	0.0	0.9931173866664326	-0.4682950126011188	0.0	1.006232594779255	-0.5358774576690905	0.0	1.032368087628359	-0.5945519498111222	0.0	0.9854395085516645	-0.4654301288337388	0.0	0.9918490158523046	-0.5301250607012564	0.0	1.0192842858886622	-0.5860516352979005	0.0
2	0.0670859538784067	0.9836371140915081	-0.5820585593103459	0.0	0.9851764735944362	-0.5812964688184048	0.0	0.985776650730971	-0.6793858652898035	0.0	0.9750633491065502	-0.7770853801768631	0.0	1.0085183232116248	-0.7946075082090684	0.0	1.001451467067802	-0.7972747081399922	0.0	0.9677852642801668	-0.7926970421381351	0.0	0.9821591166927442	-0.5781384918172872	0.0	0.9841745136425939	-0.6785737533695511	0.0	0.9748328828540653	-0.7723251070799094	0.0	1.0099766350963049	-0.7908374122809991	0.0	1.003796996602947	-0.7884634968304876	0.0	0.9657608767497918	-0.7868365336478246	0.0	0.9948221066078287	-0.4497747943278391	0.0	1.012895797082391	-0.38194085900335634	0.0	1.02700749651687	-0.4194177906413886	0.0	0.993029584757169	-0.46779937749488376	0.0	1.0114405387195213	-0.5343947116965765	0.0	1.041443514983156	-0.5926020664564908	0.0	0.9844970874826146	-0.46486311757678567	0.0	0.9968908992386133	-0.5297500185775034	0.0	1.0280836085227432	-0.5839477251027118	0.0
3	0.10062893081761004	0.982928928523182	-0.5820794103532027	0.0	0.9842681574578536	-0.5816819672357832	0.0	0.9854969802200823	-0.6800335482034724	0.0	0.974946960184845	-0.7779765201310357	0.0	1.010712781459665	-0.7950284416585582	0.0	1.0037349818799517	-0.7978420288515207	0.0	0.9669620202779372	-0.7930839612401873	0.0	0.9821638695600639	-0.5785574361672927	0.0	0.9843795617587294	-0.6787878123855662	0.0	0.9748163457248212	-0.7729492507272082	0.0	1.0110940994866342	-0.7910440882626187	0.0	1.0053767105680418	-0.7887737503481238	0.0	0.9658366746031591	-0.7871977263197873	0.0	0.9943027659814674	-0.4499724413014427	0.0	1.0121552857997578	-0.3823129720547743	0.0	1.026746163999846	-0.4202086325686012	0.0	0.9927556501113881	-0.46743039784142676	0.0	1.0169884338747337	-0.5320327847502783	0.0	1.0522116416757192	-0.5885081504771804	0.0	0.9834988386981431	-0.46451133319749205	0.0	1.0032041994802627	-0.5285058092211201	0.0	1.0393468188030857	-0.5800404393991795	0.0
4	0.1341719077568134	0.9822673786631781	-0.5821154252069851	0.0	0.9832392546926526	-0.5820383526636113	0.0	0.9851715833385924	-0.6809536862448732	0.0	0.974834244102074	-0.778879852326093	0.0	1.0123080146988241	-0.7953350925459743	0.0	1.0055964630522685	-0.798433856667482	0.0	0.9663935490486808	-0.7934516993353297	0.0	0.9822341796373804	-0.5791263759771821	0.0	0.9845146051202471	-0.6793478870151876	0.0	0.9750181561625793	-0.7737421509200624	0.0	1.011865534000923	-0.7915109595109877	0.0	1.006715230451269	-0.7891998884664415	0.0	0.9660720196700129	-0.7877593502622174	0.0	0.9937583954045127	-0.4504400898438422	0.0	1.0117499633053824	-0.3828298553937503	0.0	1.0263438303675605	-0.4211317157495936	0.0	0.9923173679299747	-0.4672400729247783	0.0	1.022861968349849	-0.5284662505742077	0.0	1.0646084784199161	-0.5814157356408974	0.0	0.9827122920103328	-0.46439029269740983	0.0	1.0108482918674195	-0.5259199279999313	0.0	1.0531127147226813	-0.5735470959234357	0.0
5	0.16771488469601675	0.9817146981525867	-0.5822469997683194	0.0	0.9823285725809695	-0.5823274424507452	0.0	0.9848511137736654	-0.6820833577441922	0.0	0.9747539915360366	-0.7797517263561956	0.0	1.0129285977902915	-0.7956871469726294	0.0	1.0066140785211963	-0.7991285369456366	0.0	0.9661628287387976	-0.7938671743856724	0.0	0.9823093632474399	-0.5796910380514019	0.0	0.984537000172346	-0.6802826959118456	0.0	0.975390557915607	-0.7746952525166583	0.0	1.0118595421885554	-0.792424742384696	0.0	1.0073588471366048	-0.7898634691148062	0.0	0.9664863885746389	-0.7885523797454647	0.0	0.9932213307256278	-0.45118008085382466	0.0	1.0117135168343174	-0.38337475082930383	0.0	1.0258541378606272	-0.42202059420753063	0.0	0.9917865256202816	-0.46721611636483845	0.0	1.0289315499378342	-0.5234331734277885	0.0	1.0779002444137795	-0.5708005250223867	0.0	0.9823736361018621	-0.4644121645937586	0.0	1.0192937796469308	-0.5215792742270298	0.0	1.068400780404848	-0.5639134581004036	0.0
6	0.20125786163522008	0.9812873170744054	-0.5825187791352723	0.0	0.9817266073002413	-0.5825462876665155	0.0	0.9846308185732314	-0.6832422920074845	0.0	0.9747714878035083	-0.7805669462480205	0.0	1.0126423305382886	-0.7961304865115401	0.0	1.0067675634234274	-0.7998694803916525	0.0	0.966316583471179	-0.7943576056906806	0.0	0.9822304861358278	-0.5801004612621949	0.0	0.9843900634626811	-0.6814507065983424	0.0	0.9758251565713647	-0.7756812699852316	0.0	1.0110461584431032	-0.7936754088431277	0.0	1.0072171559341472	-0.7906741085297855	0.0	0.9669631886277795	-0.7894338018234055	0.0	0.9927489314264398	-0.45203620453563603	0.0	1.011951669131925	-0.3838283912447519	0.0	1.0253782006270142	-0.4227283646211105	0.0	0.9912482624640969	-0.4672728446680957	0.0	1.0349824694196788	-0.5167612972225842	0.0	1.0909022091015679	-0.5564623451967748	0.0	0.9824478508429407	-0.4644255140306706	0.0	1.0275329646112996	-0.5152524101607033	0.0	1.0835149788986829	-0.5508667060165171	0.0
7	0.23480083857442344	0.9809859050066868	-0.582909213681836	0.0	0.9814877521251488	-0.5827332417888403	0.0	0.984567293517367	-0.684223144984596	0.0	0.9749040139746384	-0.7813289212657419	0.0	1.0118581292675874	-0.7965888654665918	0.0	1.006377728358498	-0.8005269528316316	0.0	0.9667854145507083	-0.7948927021554533	0.0	0.9818801898090664	-0.5803062047774299	0.0	0.9840807845961197	-0.6826054037580777	0.0	0.9761940003288824	-0.7765213309258342	0.0	1.0098161569231066	-0.7948942998125934	0.0	1.0065661421134222	-0.7913766462828558	0.0	0.9673170184185286	-0.7901715906857768	0.0	0.9923843490739935	-0.45278112934439835	0.0	1.0122989899036867	-0.38410493929118467	0.0	1.025026733297361	-0.4231667329201163	0.0	0.9907834191705938	-0.4672895172369441	0.0	1.0407459558864671	-0.5084260865331859	0.0	1.1023740693929178	-0.538519083117068	0.0	0.9826627085663927	-0.464293460706739	0.0	1.0344730840640721	-0.5069383294290961	0.0	1.0964963187021226	-0.5344270091128416	0.0
8	0.2683438155136268	0.9808339955132587	-0.5833389393056742	0.0	0.9815693319947232	-0.5829219232947989	0.0	0.9846736653307425	-0.6848893655332956	0.0	0.9750869836292769	-0.7819999832261457	0.0	1.0109198071866696	-0.7969453617647807	0.0	1.0057477779750723	-0.8009743630617285	0.0	0.9673833115883281	-0.7953879580121912	0.0	0.9812949324916775	-0.5803433343325527	0.0	0.9836922190621215	-0.6835131032589673	0.0	0.9763943273205471	-0.7770828943159007	0.0	1.008583920013422	-0.7957279841692395	0.0	1.0056951837679287	-0.7917611167482163	0.0	0.9674431308363719	-0.7905759222474348	0.0	0.9921394513767992	-0.453247617608754	0.0	1.0126270856578885	-0.38415328837479656	0.0	1.0248541562743754	-0.4232661335438942	0.0	0.9904674140062444	-0.46714084792478444	0.0	1.045941635031868	-0.4985291878227381	0.0	1.1113971280729291	-0.5174811073430194	0.0	0.9827566546798495	-0.4639286118958954	0.0	1.0392421653588386	-0.4968139053916914	0.0	1.105431883666124	-0.5149510420985564	0.0
9	0.3018867924528301	0.9808893323593145	-0.5836835005229488	0.0	0.9819205976238244	-0.5830883816556965	0.0	0.9849769513333224	-0.685185894111268	0.0	0.9752288080993564	-0.7824416669051909	0.0	1.0099032225735645	-0.7970979569467699	0.0	1.004954704843175	-0.8011083412479981	0.0	0.9678936874357997	-0.7956984518518133	0.0	0.9806317542780922	-0.5802344765884238	0.0	0.9833384864815171	-0.6840200491258613	0.0	0.9763716082083647	-0.7772922099736497	0.0	1.0074809482008182	-0.7960312539423422	0.0	1.0046567596219582	-0.7917683638777916	0.0	0.9673396858492865	-0.7905353477674779	0.0	0.9920086299386383	-0.45337261026147535	0.0	1.0129065467262244	-0.38397654102488904	0.0	1.0248406952217601	-0.422929160878676	0.0	0.9903520688653275	-0.46672436340063056	0.0	1.050311226367306	-0.4872451532951225	0.0	1.1174573258939047	-0.4942264341735032	0.0	0.9826224418638135	-0.4632732429539172	0.0	1.0412349068866058	-0.4852009434363746	0.0	1.108652491500675	-0.49316643232008456	0.0
10	0.3354297693920335	0.9812119964586056	-0.5837897424109274	0.0	0.9825189761134226	-0.5831448166492045	0.0	0.9855127243622226	-0.6851038709939776	0.0	0.9752617188535018	-0.7824701138488005	0.0	1.0087566323746064	-0.7969737454643795	0.0	1.0039537763776396	-0.8008502829362978	0.0	0.9681521796851605	-0.7956618160134301	0.0	0.9800641341848723	-0.5799537939852265	0.0	0.9831106277688687	-0.68407576702639	0.0	0.976111885788199	-0.7771076484449854	0.0	1.0063805263849899	-0.7958445589669889	0.0	1.0033023140569202	-0.7914403459779275	0.0	0.9670402223339138	-0.7900081599236811	0.0	0.9919776839738348	-0.4531648058825897	0.0	1.0131553032604808	-0.3836208649799522	0.0	1.0249287734660455	-0.4220564925771651	0.0	0.9904325305264633	-0.4659885225987915	0.0	1.0536061932246061	-0.4748418601245692	0.0	1.1202895673098652	-0.46981156843652594	0.0	0.9822609579307552	-0.4622786639578777	0.0	1.0401324160096592	-0.4725639704655053	0.0	1.1050075256895098	-0.4701047400501135	0.0
